<svg width="28" height="28" viewBox="0 0 28 28" fill="none" xmlns="http://www.w3.org/2000/svg">
<path d="M28 14C28 21.732 21.732 28 14 28C6.26801 28 0 21.732 0 14C0 6.26801 6.26801 0 14 0C21.732 0 28 6.26801 28 14Z" fill="white"/>
<path d="M9.49716 8.09091H10.8182V15.8892C10.8182 16.5852 10.6903 17.1765 10.4347 17.663C10.179 18.1495 9.81854 18.5188 9.35334 18.771C8.88814 19.0231 8.33949 19.1491 7.70739 19.1491C7.1108 19.1491 6.5799 19.0408 6.1147 18.8242C5.6495 18.604 5.28374 18.2915 5.0174 17.8867C4.75107 17.4819 4.6179 17.0007 4.6179 16.4432H5.91761C5.91761 16.7521 5.99396 17.022 6.14666 17.2528C6.30291 17.4801 6.51598 17.6577 6.78587 17.7855C7.05575 17.9134 7.36293 17.9773 7.70739 17.9773C8.08736 17.9773 8.41051 17.8974 8.67685 17.7376C8.94318 17.5778 9.1456 17.3434 9.28409 17.0344C9.42614 16.7219 9.49716 16.3402 9.49716 15.8892V8.09091ZM16.832 19H13.4656V8.09091H16.9812C18.0394 8.09091 18.945 8.3093 19.6978 8.74609C20.4506 9.17933 21.0277 9.80256 21.429 10.6158C21.8303 11.4254 22.0309 12.3949 22.0309 13.5241C22.0309 14.6605 21.8285 15.6388 21.4237 16.4592C21.0188 17.2759 20.4293 17.9045 19.6552 18.3448C18.881 18.7816 17.94 19 16.832 19ZM14.7866 17.8281H16.7468C17.6488 17.8281 18.3963 17.6541 18.9893 17.3061C19.5824 16.9581 20.0245 16.4627 20.3157 15.82C20.6069 15.1772 20.7525 14.4119 20.7525 13.5241C20.7525 12.6435 20.6087 11.8853 20.321 11.2496C20.0334 10.6104 19.6037 10.1204 19.032 9.77947C18.4602 9.43501 17.7482 9.26278 16.896 9.26278H14.7866V17.8281Z" fill="#BB945F"/>
</svg>
